<svg width="100" height="100" viewBox="0 0 100 100" fill="none" xmlns="http://www.w3.org/2000/svg">
<path d="M0 20C0 14.6957 2.10714 9.60859 5.85786 5.85786C9.60859 2.10714 14.6957 0 20 0H80C85.3043 0 90.3914 2.10714 94.1421 5.85786C97.8929 9.60859 100 14.6957 100 20V70C91.17 70 85.55 67.3 81.54 63.54C77.37 59.62 74.57 54.21 72.14 48.14C71.31 46.07 70.57 44.04 69.82 42L68.75 39.07C67.7011 36.1227 66.4618 33.2466 65.04 30.46C62.2 25.14 57.75 20 50 20C42.25 20 37.8 25.14 34.96 30.46C33.55 33.12 32.36 36.12 31.26 39.07L30.18 42C29.43 44.04 28.68 46.07 27.86 48.14C25.43 54.21 22.63 59.62 18.46 63.54C14.44 67.3 8.81 70 0 70V20ZM0 80C0 85.3043 2.10714 90.3914 5.85786 94.1421C9.60859 97.8929 14.6957 100 20 100H80C85.3043 100 90.3914 97.8929 94.1421 94.1421C97.8929 90.3914 100 85.3043 100 80C88.82 80 80.7 76.45 74.7 70.84C68.88 65.38 65.43 58.29 62.86 51.86C61.9939 49.6725 61.1605 47.4723 60.36 45.26L59.38 42.56C58.4826 40.0281 57.4237 37.5564 56.21 35.16C54.05 31.12 52.25 30 50 30C47.75 30 45.95 31.1 43.79 35.17C42.7 37.2 41.71 39.67 40.62 42.57L39.63 45.26C38.86 47.37 38.03 49.64 37.14 51.86C34.57 58.29 31.12 65.38 25.29 70.84C19.3 76.45 11.18 80 0 80Z" fill="url(#paint0_linear_141_11)"/>
<defs>
<linearGradient id="paint0_linear_141_11" x1="0" y1="0" x2="100" y2="100" gradientUnits="userSpaceOnUse">
<stop stop-color="#00FFA3"/>
<stop offset="1" stop-color="#0038FF"/>
</linearGradient>
</defs>
</svg>
