<svg width="100" height="119" viewBox="0 0 100 119" fill="none" xmlns="http://www.w3.org/2000/svg">
<path d="M16.6667 0C12.2464 0 8.00716 1.75595 4.88155 4.88155C1.75595 8.00716 0 12.2464 0 16.6667V72.2222C0 76.6425 1.75595 80.8817 4.88155 84.0073C8.00716 87.1329 12.2464 88.8889 16.6667 88.8889H31.0518L45.0815 115.556C45.5524 116.452 46.2596 117.203 47.1265 117.727C47.9934 118.251 48.9871 118.528 50 118.528C51.0129 118.528 52.0066 118.251 52.8735 117.727C53.7404 117.203 54.4476 116.452 54.9185 115.556L68.9481 88.8889H83.3333C87.7536 88.8889 91.9928 87.1329 95.1184 84.0073C98.2441 80.8817 100 76.6425 100 72.2222V16.6667C100 14.478 99.5689 12.3107 98.7313 10.2886C97.8937 8.26652 96.6661 6.4292 95.1184 4.88155C93.5708 3.33391 91.7335 2.10625 89.7114 1.26867C87.6893 0.431096 85.522 0 83.3333 0H16.6667ZM25.9259 31.4815C25.9259 30.0081 26.5112 28.595 27.5531 27.5531C28.595 26.5112 30.0081 25.9259 31.4815 25.9259H42.5926C44.066 25.9259 45.4791 26.5112 46.521 27.5531C47.5628 28.595 48.1481 30.0081 48.1481 31.4815C48.1481 47.4148 38.6074 58.1407 35.4074 61.3333C34.8988 61.8792 34.2855 62.317 33.604 62.6206C32.9225 62.9242 32.1869 63.0875 31.4409 63.1007C30.695 63.1138 29.954 62.9766 29.2622 62.6972C28.5705 62.4178 27.9421 62.0019 27.4145 61.4744C26.887 60.9468 26.4711 60.3184 26.1917 59.6266C25.9123 58.9349 25.7751 58.1939 25.7882 57.448C25.8014 56.702 25.9646 55.9664 26.2683 55.2849C26.5719 54.6034 27.0097 53.9901 27.5556 53.4815C29.037 51.9926 32.0889 48.5778 34.3333 43.6593C33.49 44.1637 32.5279 44.4355 31.5453 44.4467C30.5626 44.458 29.5945 44.2084 28.7398 43.7235C27.8851 43.2385 27.1743 42.5355 26.68 41.6862C26.1857 40.8369 25.9255 39.8716 25.9259 38.8889V31.4815ZM55.5556 31.4815C55.5556 30.0081 56.1409 28.595 57.1827 27.5531C58.2246 26.5112 59.6377 25.9259 61.1111 25.9259H72.2222C73.6956 25.9259 75.1087 26.5112 76.1506 27.5531C77.1925 28.595 77.7778 30.0081 77.7778 31.4815C77.7778 47.4148 68.237 58.1407 65.037 61.3333C64.5284 61.8792 63.9151 62.317 63.2336 62.6206C62.5521 62.9242 61.8165 63.0875 61.0705 63.1007C60.3246 63.1138 59.5836 62.9766 58.8919 62.6972C58.2001 62.4178 57.5717 62.0019 57.0442 61.4744C56.5166 60.9468 56.1007 60.3184 55.8213 59.6266C55.5419 58.9349 55.4047 58.1939 55.4178 57.448C55.431 56.702 55.5943 55.9664 55.8979 55.2849C56.2016 54.6034 56.6394 53.9901 57.1852 53.4815C58.6667 51.9926 61.7185 48.5778 63.963 43.6593C63.1196 44.1637 62.1575 44.4355 61.1749 44.4467C60.1922 44.458 59.2242 44.2084 58.3695 43.7235C57.5148 43.2385 56.804 42.5355 56.3096 41.6862C55.8153 40.8369 55.5551 39.8716 55.5556 38.8889V31.4815ZM5.55556 107.407H29.4296L35.2815 118.519H5.55556C4.08213 118.519 2.66905 117.933 1.62718 116.891C0.585315 115.849 0 114.436 0 112.963C0 111.49 0.585315 110.076 1.62718 109.035C2.66905 107.993 4.08213 107.407 5.55556 107.407Z" fill="white"/>
</svg>
